# xmcd
# 
# Track frame offsets:
#     182
#     25845
#     55297
#     86007
#     117807
#     162907
#     184297
#     212350
# 
# Disc length: 3261
# 
# Revision: 1
# Processed by: cddbd v1.5.2PL0 Copyright (c) Steve Scherf et al.
# Submitted via: BonkEnc v1.0.8
# 
DISCID=630cbb08
DTITLE=Neil Young and Crazy Horse - Weld
DYEAR=1991
DGENRE=Blues
TTITLE0=Hey Hey, My My (Into The Black)
TTITLE1=Crime In The City
TTITLE2=Blowin' In The Wind
TTITLE3=Welfare Mothers
TTITLE4=Love To Burn
TTITLE5=Cinnamon Girl
TTITLE6=Mansion On The Hell
TTITLE7=F*!#in' Up
EXTD=
EXTT0=
EXTT1=
EXTT2=
EXTT3=
EXTT4=
EXTT5=
EXTT6=
EXTT7=
PLAYORDER=
